<svg xmlns="http://www.w3.org/2000/svg" viewBox="0 0 149.99 178.43"><defs><style>.cls-1{fill:#1a3f5c;}.cls-2{fill:#f8a41c;}</style></defs><g id="Layer_2" data-name="Layer 2"><g id="Layer_1-2" data-name="Layer 1"><rect class="cls-1" x="16.62" y="38.92" width="4.17" height="28.79"/><path class="cls-1" d="M22,87.11H15.43c-1.65,0-2.9-1.13-2.6-2.36l3.79-15.62h4.16l3.79,15.62C24.86,86,23.62,87.11,22,87.11Z"/><circle class="cls-1" cx="18.7" cy="64.39" r="7.8"/><path class="cls-1" d="M115.54,149.19,38,178.13a4.73,4.73,0,0,1-6.38-4.43V51.42L119.49,20.6V143.5A6.08,6.08,0,0,1,115.54,149.19Z"/><polygon class="cls-2" points="56.2 157.9 101.45 171.51 101.45 69.13 56.2 85.81 56.2 157.9"/><rect class="cls-1" x="87.94" y="117.02" width="6.6" height="6.6" rx="3.3"/><rect class="cls-1" x="89.45" y="120.32" width="3.58" height="8.82" rx="1.79"/><path class="cls-1" d="M148.25,36.64,70.74,70.24a7.76,7.76,0,0,1-7-.35L.87,35A1.73,1.73,0,0,1,1,31.93L72.94.53A6.13,6.13,0,0,1,78.07.6l70.25,30.69A3,3,0,0,1,148.25,36.64Z"/></g></g></svg>