<svg xmlns="http://www.w3.org/2000/svg" viewBox="0 0 281.83 164.16"><defs><style>.cls-1{fill:#1a3f5c;}.cls-2{fill:#f8a41c;}</style></defs><g id="Layer_2" data-name="Layer 2"><g id="Layer_1-2" data-name="Layer 1"><rect class="cls-1" x="15.21" y="35.64" width="3.82" height="26.36"/><path class="cls-1" d="M20.11,79.76h-6c-1.51,0-2.65-1-2.38-2.16l3.46-14.3H19l3.46,14.3C22.77,78.72,21.63,79.76,20.11,79.76Z"/><circle class="cls-1" cx="17.12" cy="58.96" r="7.14"/><path class="cls-1" d="M105.79,136.6l-71,26.5a4.32,4.32,0,0,1-5.83-4v-112L109.4,18.86V131.4A5.55,5.55,0,0,1,105.79,136.6Z"/><polygon class="cls-2" points="51.46 144.58 92.89 157.04 92.89 63.3 51.46 78.57 51.46 144.58"/><rect class="cls-1" x="80.52" y="107.15" width="6.05" height="6.05" rx="3.02"/><rect class="cls-1" x="81.9" y="110.17" width="3.28" height="8.08" rx="1.64"/><path class="cls-1" d="M143,60.93h-7.52V86.66h-6.35V60.93h-7.52V55.15H143Z"/><path class="cls-1" d="M171.37,86.66H165V74H153.38V86.66h-6.32V55.15h6.32V67.72H165V55.15h6.35Z"/><path class="cls-1" d="M194.25,86.66H177.4V55.15h16.2V61h-9.87v6.85h9.19v5.85h-9.19v7h10.52Z"/><path class="cls-1" d="M146.84,112.53q0,6-3,9.73c-2,2.47-4.93,3.7-8.79,3.7s-6.59-1.21-8.53-3.64a14.77,14.77,0,0,1-2.91-9.52V93.9H130v18.63a8.47,8.47,0,0,0,1.47,5.38,4.72,4.72,0,0,0,3.86,1.83,4.64,4.64,0,0,0,3.78-1.77,8,8,0,0,0,1.45-5.17V93.9h6.33Z"/><path class="cls-1" d="M177.83,125.41h-6.38L159.87,106c-.33-.58-.6-1.09-.83-1.52s-.39-.8-.5-1.09h-.08c0,.56,0,1.26.06,2.11s0,1.84,0,3v17h-6V93.9h6.82l11.14,18.83c.24.43.47.85.7,1.29s.44.86.64,1.28h.08c0-.36-.05-.91-.06-1.64s0-1.62,0-2.69V93.9h6Z"/><path class="cls-1" d="M190.19,125.41h-6.32V93.9h6.32Z"/><path class="cls-1" d="M233.09,93.9l-7.26,31.51h-7.17L214,105.59c-.11-.48-.2-.89-.26-1.22s-.13-.75-.21-1.26h-.07c-.08.51-.16.94-.23,1.28s-.16.75-.26,1.2l-4.78,19.82h-7.47L193.48,93.9h6.82l4.06,20.63c.07.43.14.79.19,1.09s.13.78.22,1.44h.11q.17-1,.24-1.38c0-.27.15-.68.29-1.23l5.1-20.55h6.78l4.6,20.81c.09.42.16.77.21,1s.13.7.24,1.27h.08c.09-.6.15-1,.19-1.29s.11-.64.22-1.15l4-20.68Z"/><path class="cls-1" d="M232.15,125.41,242.22,93.9h7.51l9.83,31.51H252.9L251,119.1h-10.3l-1.9,6.31Zm10-12.11h7.34l-3-11-.3-1.08c-.09-.33-.18-.72-.27-1.16h-.16c-.08.37-.16.73-.26,1.08s-.19.73-.31,1.14Z"/><path class="cls-1" d="M281.83,93.9l-9.14,20.61v10.9h-6.33V114.64L257.45,93.9h7.15l4.6,11.67c.1.26.2.52.28.77s.2.59.35,1h.07c.13-.41.24-.73.33-1s.18-.47.3-.76l4.68-11.76Z"/><path class="cls-1" d="M130.27,164.16h-6.33V132.65h6.33Z"/><path class="cls-1" d="M161.53,164.16h-6.38l-11.58-19.45c-.33-.58-.6-1.09-.82-1.52a9.67,9.67,0,0,1-.51-1.09h-.08c0,.56,0,1.26.06,2.11s0,1.84,0,3v17h-6V132.65h6.82l11.15,18.83.69,1.29c.23.43.44.86.64,1.28h.08c0-.36,0-.91-.06-1.63s0-1.63,0-2.7V132.65h6Z"/><path class="cls-1" d="M135.74,33.55l-71,30.76A7.09,7.09,0,0,1,58.35,64L.8,32.06a1.58,1.58,0,0,1,.14-2.82L66.78.48a5.63,5.63,0,0,1,4.7.07l64.32,28.1A2.7,2.7,0,0,1,135.74,33.55Z"/></g></g></svg>