<svg xmlns="http://www.w3.org/2000/svg" viewBox="0 0 281.84 164.16"><defs><style>.cls-1{fill:#fdf5ed;}.cls-2{fill:#1a3f5c;}.cls-3{fill:#f8a41c;}</style></defs><g id="Layer_2" data-name="Layer 2"><g id="Layer_1-2" data-name="Layer 1"><path class="cls-1" d="M17.93,55.56v9.92H14.11V55.56a6.89,6.89,0,0,1,3.82,0Z"/><path class="cls-1" d="M19,83.24H13c-1.51,0-2.65-1-2.38-2.17l3.46-14.3h3.82l3.47,14.3C21.67,82.2,20.53,83.24,19,83.24Z"/><path class="cls-1" d="M23.16,62.43a7.12,7.12,0,0,1-4.66,6.69,7.06,7.06,0,0,1-5,0,7.13,7.13,0,0,1,.57-13.56,6.89,6.89,0,0,1,3.82,0A7.12,7.12,0,0,1,23.16,62.43Z"/><path class="cls-1" d="M66.43,68.09a11.21,11.21,0,0,1-10.11-.5L28.92,52.38V159.05a4.33,4.33,0,0,0,4.32,4.32,4.27,4.27,0,0,0,1.51-.27l34.94-13h0l3.26,1,19.93-7.44v-2.2l12.9-4.81a5.56,5.56,0,0,0,3.61-5.21V49.46Zm14.09,42.08a3,3,0,1,1,5.16,2.14,3.25,3.25,0,0,1-.5.4v3.89a1.64,1.64,0,0,1-3.28,0v-3.89A3,3,0,0,1,80.52,110.17Z"/><path class="cls-1" d="M111.47,34.36v9.71l-2.07.9L64.77,64.31a7,7,0,0,1-2.9.62A7.14,7.14,0,0,1,58.34,64L28.92,47.67l-2.07-1.15V45.27Z"/><path class="cls-2" d="M108.88,32.61,28.39,43l-3.6.46v1.93l2.06,1.14,2.07,1.15v-.59L109.4,36.71V45l2.07-.9,2.06-.89V32ZM69.7,150.06l3.26,1,3.27,1,16.66-6.21v-4.41Z"/><path class="cls-3" d="M51.46,78.57v66l18.23,5.48h0l3.26,1,3.27,1,16.66,5V63.3ZM81.4,108a3,3,0,0,1,4.28,4.28,3.25,3.25,0,0,1-.5.4v3.89a1.64,1.64,0,0,1-3.28,0v-3.89a3,3,0,0,1-.5-4.68Z"/><path class="cls-1" d="M143,60.93h-7.52V86.66h-6.35V60.93h-7.52V55.15H143Z"/><path class="cls-1" d="M171.37,86.66H165V74H153.39V86.66h-6.33V55.15h6.33V67.72H165V55.15h6.35Z"/><path class="cls-1" d="M194.25,86.66H177.4V55.15h16.2V61h-9.87v6.85h9.19v5.85h-9.19v7h10.52Z"/><path class="cls-1" d="M146.84,112.53q0,6-3,9.73t-8.8,3.7q-5.62,0-8.53-3.64a14.77,14.77,0,0,1-2.91-9.52V93.9H130v18.63a8.47,8.47,0,0,0,1.47,5.38,5,5,0,0,0,7.64.06,8,8,0,0,0,1.45-5.17V93.9h6.32Z"/><path class="cls-1" d="M177.83,125.41h-6.38L159.87,106c-.33-.58-.6-1.09-.82-1.52s-.39-.8-.51-1.09h-.08c0,.56,0,1.26.06,2.11s0,1.84,0,3v17h-6V93.9h6.82l11.15,18.83c.23.43.46.85.69,1.29s.44.86.64,1.28h.08c0-.36-.05-.91-.06-1.64s0-1.62,0-2.69V93.9h6Z"/><path class="cls-1" d="M190.2,125.41h-6.33V93.9h6.33Z"/><path class="cls-1" d="M233.1,93.9l-7.27,31.51h-7.17L214,105.59c-.12-.48-.21-.89-.27-1.22s-.13-.75-.2-1.26h-.08c-.08.51-.16.94-.23,1.28s-.16.75-.26,1.2l-4.78,19.82h-7.46L193.49,93.9h6.81l4.06,20.63c.08.43.14.79.19,1.09s.13.78.22,1.44h.12c.1-.66.18-1.12.23-1.38s.15-.68.3-1.24l5.09-20.54h6.78l4.6,20.81c.09.42.16.77.22,1s.13.69.23,1.27h.08c.09-.6.16-1,.2-1.29s.11-.64.21-1.15l4-20.68Z"/><path class="cls-1" d="M232.16,125.41,242.23,93.9h7.5l9.83,31.51H252.9L251,119.1h-10.3l-1.9,6.31Zm10-12.11h7.34l-3-11-.3-1.08c-.09-.33-.18-.72-.27-1.16h-.16c-.08.37-.16.73-.25,1.08s-.2.73-.32,1.14Z"/><path class="cls-1" d="M281.84,93.9l-9.15,20.61v10.9h-6.33V114.64L257.45,93.9h7.15l4.6,11.67c.11.26.2.52.29.77s.19.59.34,1h.08c.13-.41.23-.73.32-1s.19-.47.3-.76l4.69-11.76Z"/><path class="cls-1" d="M130.27,164.16h-6.33V132.65h6.33Z"/><path class="cls-1" d="M161.54,164.16h-6.39l-11.58-19.45c-.33-.58-.6-1.09-.82-1.52s-.39-.8-.51-1.09h-.08c0,.56.05,1.26.06,2.11s0,1.84,0,3v17h-6V132.65h6.82l11.15,18.83.69,1.29c.23.43.44.86.64,1.28h.08c0-.36,0-.91-.06-1.63s0-1.63,0-2.7V132.65h6Z"/><path class="cls-1" d="M135.74,33.55l-22.21,9.63-2.06.89-2.07.9L64.77,64.31a7,7,0,0,1-2.9.62A7.14,7.14,0,0,1,58.34,64L28.92,47.67l-2.07-1.15-2.06-1.14-6.86-3.81V39.12H14.11v.33L.79,32.06a1.58,1.58,0,0,1,.15-2.82L66.78.48A5.61,5.61,0,0,1,69.05,0a5.54,5.54,0,0,1,2.43.55l64.32,28.1A2.7,2.7,0,0,1,135.74,33.55Z"/><path class="cls-1" d="M17.93,39.12V55.56a6.89,6.89,0,0,0-3.82,0V39.12Z"/></g></g></svg>