<svg xmlns="http://www.w3.org/2000/svg" viewBox="0 0 277.95 161.89"><defs><style>.cls-1{fill:#fdf5ed;}</style></defs><g id="Layer_2" data-name="Layer 2"><g id="Layer_1-2" data-name="Layer 1"><path class="cls-1" d="M17.69,54.78v9.79H13.93V54.78a6.93,6.93,0,0,1,3.76,0Z"/><path class="cls-1" d="M18.75,82.09h-5.9c-1.49,0-2.61-1-2.35-2.13l3.42-14.11h3.77L21.1,80C21.37,81.07,20.24,82.09,18.75,82.09Z"/><path class="cls-1" d="M22.85,61.57a7,7,0,0,1-4.61,6.6,6.8,6.8,0,0,1-2.43.44,6.88,6.88,0,0,1-2.46-.44,7,7,0,0,1,.58-13.39,6.93,6.93,0,0,1,3.76,0A7.06,7.06,0,0,1,22.85,61.57Z"/><path class="cls-1" d="M85.38,108.64A2.91,2.91,0,0,1,84,111.13V115a1.61,1.61,0,1,1-3.22,0v-3.85a3,3,0,1,1,4.59-2.51Z"/><path class="cls-1" d="M26.48,44.64v1.24L28.53,47l29,16.12A7,7,0,0,0,61,64a6.94,6.94,0,0,0,2.86-.61l44-19.08,2-.89V33.89Zm39,22.52a11.1,11.1,0,0,1-10-.5l-27-15V156.86a4.26,4.26,0,0,0,4.26,4.26,4.18,4.18,0,0,0,1.49-.28l28.14-10.49,3.25,1,3.17-1.18L72,149l-3.24-1-18-5.4V77.48L91.61,62.42v79.23l2-.78,2-.75v-2.18l8.65-3.22a5.49,5.49,0,0,0,3.58-5.13V48.77Z"/><path d="M93.66,138.7l-2,.75v4.36l2-.76,2-.76v-4.35ZM107.38,32.16,28,42.39l-3.55.46v1.9l2,1.13L28.53,47v-.57L107.91,36.2v8.15l2-.89,2-.88v-11ZM72,149l-3.24-1-3.14,1.18-3.17,1.18,3.25,1,3.2,1,3.18-1.18,3.13-1.18Z"/><path d="M85.38,108.64A2.91,2.91,0,0,1,84,111.13V115a1.61,1.61,0,1,1-3.22,0v-3.85a3,3,0,1,1,4.59-2.51Z"/><path d="M92.77,60.76a2,2,0,0,0-1.16-.37,1.8,1.8,0,0,0-.7.13L50.05,75.58a2,2,0,0,0-1.33,1.9v65.11a2,2,0,0,0,1.46,1.94l15.41,4.64,3.25,1,3.21,1,19,5.71a1.9,1.9,0,0,0,.57.1,2.07,2.07,0,0,0,2-2V62.42A2,2,0,0,0,92.77,60.76Zm-1.16,94.11-16.43-4.94L72,149l-3.24-1-18-5.4V77.48L91.61,62.42Z"/><path class="cls-1" d="M94,59.08a4.11,4.11,0,0,0-2.34-.72,4,4,0,0,0-1.4.24L49.35,73.66a4.06,4.06,0,0,0-2.66,3.82v65.11a4.07,4.07,0,0,0,2.9,3.89l12.83,3.87,3.25,1,3.2,1,21.58,6.49a4.21,4.21,0,0,0,1.16.16,4,4,0,0,0,4.07-4.07V62.42A4.08,4.08,0,0,0,94,59.08Zm-2.34,95.79-16.43-4.94L72,149l-3.24-1-18-5.4V77.48L91.61,62.42Z"/><path class="cls-1" d="M85.38,108.64A2.91,2.91,0,0,1,84,111.13a2.8,2.8,0,0,1-1.62.5,2.84,2.84,0,0,1-1.6-.48,3,3,0,1,1,4.59-2.51Z"/><path class="cls-1" d="M84,110.27V115a1.61,1.61,0,1,1-3.22,0v-4.73a1.61,1.61,0,1,1,3.22,0Z"/><path class="cls-1" d="M119.91,54.4v5.69h7.43V85.47h6.26V60.09H141V54.4Z"/><path class="cls-1" d="M162.75,54.4V66.79H151.28V54.4H145V85.47h6.25V73h11.47V85.47H169V54.4Z"/><path class="cls-1" d="M181.21,79.66V72.72h9V67h-9V60.2h9.73V54.4H175V85.47h16.64V79.66Z"/><path class="cls-1" d="M138.57,92.6v18.64a7.84,7.84,0,0,1-1.42,5.11,4.57,4.57,0,0,1-3.72,1.73,4.67,4.67,0,0,1-3.82-1.8,8.35,8.35,0,0,1-1.44-5.3V92.6h-6.26v18.64a14.61,14.61,0,0,0,2.87,9.41q2.88,3.57,8.41,3.57,5.73,0,8.68-3.65c2-2.43,2.95-5.62,2.95-9.59V92.6Z"/><path class="cls-1" d="M169.5,92.6v16.85c0,1.06,0,1.94,0,2.64s0,1.25.06,1.62h-.07c-.21-.42-.41-.84-.63-1.27s-.46-.85-.68-1.25l-11-18.59h-6.71v31.09h5.88V107c0-1.13,0-2.11,0-3s0-1.53-.05-2.07h.07c.13.28.29.65.52,1.07s.48.92.81,1.51l11.41,19.18h6.29V92.6Z"/><path class="cls-1" d="M181.33,92.6v31.09h6.25V92.6Z"/><path class="cls-1" d="M223.67,92.6,219.76,113c-.09.52-.16.89-.2,1.15s-.11.68-.2,1.27h-.08c-.09-.57-.18-1-.22-1.25s-.13-.61-.22-1L214.3,92.6h-6.69l-5,20.27c-.14.55-.24.95-.29,1.21s-.13.72-.22,1.37H202c-.09-.65-.15-1.13-.2-1.42s-.13-.65-.21-1.07l-4-20.36h-6.71L198,123.69h7.37L210,104.14c.11-.46.2-.84.25-1.18s.15-.77.22-1.27h.1c.07.5.13.92.2,1.24s.13.73.26,1.21l4.59,19.55h7.08l7.15-31.09Z"/><path class="cls-1" d="M246.29,92.6H238.9L229,123.69h6.51l1.88-6.23h10.16l1.92,6.23H256Zm-7.52,19.14,3-10.88c.11-.4.22-.77.31-1.12s.17-.7.24-1.07h.16c.08.44.17.81.26,1.14s.19.68.3,1.07l3,10.86Z"/><path class="cls-1" d="M271.43,92.6l-4.61,11.6c-.13.29-.22.53-.32.76s-.18.53-.31.94h-.07c-.15-.45-.26-.78-.33-1s-.19-.5-.3-.77L261,92.6h-7l8.8,20.47v10.62h6.23V112.94l9-20.34Z"/><path class="cls-1" d="M122.24,130.82v31.07h6.25V130.82Z"/><path class="cls-1" d="M153.42,130.82v16.84c0,1.05,0,1.94,0,2.66s0,1.25.05,1.62h-.07c-.19-.43-.41-.85-.63-1.27s-.44-.85-.68-1.28l-11-18.57h-6.73v31.07h5.9V145.17c0-1.12,0-2.1,0-2.95s0-1.53-.05-2.08h.07c.11.29.28.64.5,1.08s.48.93.81,1.5L153,161.89h6.31V130.82Z"/><path class="cls-1" d="M133.87,33.08,112,42.58v-11l-4.59.59L28,42.39l-3.55.46v1.9L17.69,41V54.78a6.93,6.93,0,0,0-3.76,0V38.91L.78,31.6a1.55,1.55,0,0,1,.15-2.76L65.87.48A5.3,5.3,0,0,1,68.1,0a5.71,5.71,0,0,1,2.4.53L134,28.25A2.67,2.67,0,0,1,133.87,33.08Z"/><path class="cls-1" d="M112,31.57v11l-2,.88-2,.89-44,19.08A6.94,6.94,0,0,1,61,64a7,7,0,0,1-3.47-.92L28.53,47l-2.05-1.12-2-1.13v-1.9L28,42.39l79.38-10.23Z"/></g></g></svg>