<svg xmlns="http://www.w3.org/2000/svg" viewBox="0 0 268.24 160.97"><defs><style>.cls-1{fill:#fdf5ed;}</style></defs><g id="Layer_2" data-name="Layer 2"><g id="Layer_1-2" data-name="Layer 1"><rect x="12.03" y="40.55" width="3.58" height="24.73"/><path d="M16.63,81.94H11c-1.42,0-2.49-1-2.24-2L12,66.49h3.58l3.25,13.42C19.12,81,18.05,81.94,16.63,81.94Z"/><circle cx="13.82" cy="62.42" r="6.7"/><path d="M85.06,107.21a2.83,2.83,0,0,1-1.29,2.38v3.65a1.54,1.54,0,1,1-3.07,0v-3.65a2.84,2.84,0,1,1,4.36-2.38Z"/><path d="M29.07,46.32V153.05a6,6,0,0,0,6,6,5.83,5.83,0,0,0,2.1-.39l29.17-10.87,3-1.13,3-1.12-3-.91-17.11-5.16V77.57L91,63.24v75.34l1.93-.72,1.94-.74,8.9-3.31a7.18,7.18,0,0,0,4.64-6.7v-91Z"/><path d="M106,34.46,30.5,44.19l-3.36.43V153.05A7.92,7.92,0,0,0,35.05,161a7.58,7.58,0,0,0,2.77-.5L69.37,148.7l3-1.12,3-1.11-3.06-.93-3-.91-3,1.12-3,1.11-26.79,10a4,4,0,0,1-1.42.27,4.07,4.07,0,0,1-4-4.07V48l75.49-9.72v88.81a5.24,5.24,0,0,1-3.38,4.89l-8.23,3.07-1.94.72-1.93.72v4.12l1.93-.72,1.94-.72,9.58-3.57a9.15,9.15,0,0,0,5.91-8.51V33.9Z"/><path class="cls-1" d="M85.06,107.21a2.83,2.83,0,0,1-1.29,2.38v3.65a1.54,1.54,0,1,1-3.07,0v-3.65a2.84,2.84,0,1,1,4.36-2.38Z"/><path class="cls-1" d="M92.11,61.64a2,2,0,0,0-1.1-.35,2.15,2.15,0,0,0-.67.13L51.48,75.74a1.92,1.92,0,0,0-1.26,1.83v61.9a1.94,1.94,0,0,0,1.36,1.86l14.68,4.42,3,.91,3.06.92L90.45,153a1.56,1.56,0,0,0,.56.09,1.94,1.94,0,0,0,1.93-1.93V63.24A2,2,0,0,0,92.11,61.64ZM91,151.17l-15.64-4.7-3.06-.93-3-.91-17.11-5.16V77.57L91,63.24Z"/><path d="M93.22,60.07A3.87,3.87,0,0,0,91,59.36a3.74,3.74,0,0,0-1.33.25L50.81,73.94a3.87,3.87,0,0,0-2.54,3.63v61.9a3.85,3.85,0,0,0,2.75,3.7l12.24,3.69,3.06.93,3.05.91,20.52,6.17a3.86,3.86,0,0,0,5-3.7V63.24A3.87,3.87,0,0,0,93.22,60.07ZM91,151.17l-15.64-4.7-3.06-.93-3-.91-17.11-5.16V77.57L91,63.24Z"/><path d="M85.06,107.21a2.83,2.83,0,1,1-2.82-2.85A2.83,2.83,0,0,1,85.06,107.21Z"/><path d="M83.77,108.73v4.51a1.54,1.54,0,1,1-3.07,0v-4.51a1.54,1.54,0,0,1,3.07,0Z"/><path d="M138,61h-7.05V85.15h-6V61h-7V55.59H138Z"/><path d="M164.62,85.15h-6V73.28H147.75V85.15h-5.93V55.59h5.93V67.38h10.92V55.59h6Z"/><path d="M186.08,85.15h-15.8V55.59h15.19v5.53h-9.26v6.43h8.62V73h-8.62v6.6h9.87Z"/><path d="M141.61,109.42a14,14,0,0,1-2.81,9.12c-1.87,2.32-4.62,3.47-8.25,3.47s-6.18-1.13-8-3.41a13.85,13.85,0,0,1-2.73-8.93V91.94h6v17.48a7.92,7.92,0,0,0,1.38,5,4.41,4.41,0,0,0,3.62,1.72,4.37,4.37,0,0,0,3.55-1.66,7.52,7.52,0,0,0,1.36-4.85V91.94h5.93Z"/><path d="M170.68,121.5h-6l-10.86-18.24-.77-1.43q-.31-.61-.48-1h-.07c0,.52,0,1.18.05,2s0,1.74,0,2.81V121.5H147V91.94h6.39l10.46,17.67c.22.39.44.8.65,1.2s.41.81.6,1.21h.07c0-.35,0-.86-.05-1.54s0-1.52,0-2.52v-16h5.6Z"/><path d="M182.28,121.5h-5.94V91.94h5.94Z"/><path d="M222.52,91.94,215.7,121.5H209l-4.38-18.59c-.11-.46-.19-.84-.24-1.15s-.12-.7-.2-1.18h-.07q-.1.72-.21,1.2c-.07.33-.15.7-.25,1.13l-4.48,18.59h-7l-6.78-29.56h6.39l3.8,19.36c.08.4.14.74.19,1s.11.73.2,1.35h.11c.1-.62.17-1,.22-1.3s.14-.63.28-1.16l4.77-19.27h6.36L212,111.46c.09.4.15.73.2,1s.12.65.22,1.19h.08c.08-.57.14-1,.18-1.21s.1-.6.2-1.08l3.71-19.4Z"/><path d="M221.64,121.5l9.44-29.56h7l9.22,29.56H241.1l-1.82-5.92h-9.67l-1.78,5.92ZM231,110.14h6.89l-2.81-10.32-.27-1c-.09-.31-.18-.67-.26-1.09h-.15c-.07.35-.15.68-.24,1s-.18.69-.29,1.07Z"/><path d="M268.24,91.94l-8.58,19.34V121.5h-5.94V111.4l-8.36-19.46h6.71l4.32,11c.09.24.18.48.26.72s.19.55.32,1h.08c.12-.39.22-.68.3-.89s.18-.45.29-.72l4.39-11Z"/><path d="M126.07,157.85h-5.94V128.29h5.94Z"/><path d="M155.39,157.85h-6l-10.86-18.24c-.3-.55-.56-1-.77-1.44s-.36-.74-.47-1h-.08c0,.52,0,1.18.06,2s0,1.74,0,2.81v15.91h-5.61V128.29h6.4L148.54,146c.22.39.44.8.65,1.2s.42.81.6,1.21h.07c0-.35,0-.86-.05-1.54s0-1.52,0-2.52v-16h5.6Z"/><path d="M61.91,66.71a8.64,8.64,0,0,1-4.27-1.14l-54-29.95A3.41,3.41,0,0,1,4,29.52l61.77-27a7.1,7.1,0,0,1,2.91-.61,7.29,7.29,0,0,1,3.08.69L132.06,29l0,0a4.47,4.47,0,0,1-.11,8.1L65.4,66A8.48,8.48,0,0,1,61.91,66.71Z"/><path d="M132.94,27.25l-.07,0-.07,0L72.52.86A9.19,9.19,0,0,0,68.65,0,8.9,8.9,0,0,0,65,.77L3.2,27.74h0a5.36,5.36,0,0,0-.49,9.54l0,0v0L12,42.48l3.58,2,11.52,6.4,1.93,1.07L31,53,56.71,67.26a10.5,10.5,0,0,0,9.48.47l40.3-17.47,1.93-.84,2-.84,22.36-9.7,0,0h0a6.4,6.4,0,0,0,.16-11.61Zm-1.74,8.09-20.83,9-2,.84-1.93.84L64.63,64.19a6.78,6.78,0,0,1-2.72.58,6.69,6.69,0,0,1-3.31-.88L31,48.58l-1.93-1.07-1.93-1.09L4.62,33.93a1.48,1.48,0,0,1,.14-2.64l61.75-27a5.51,5.51,0,0,1,2.14-.45,5.24,5.24,0,0,1,2.28.52l60.33,26.36A2.54,2.54,0,0,1,131.2,35.34Z"/></g></g></svg>