<svg xmlns="http://www.w3.org/2000/svg" viewBox="0 0 323.38 183.37"><defs><style>.cls-1{fill:#fdf5ed;}.cls-2{fill:#1a3f5c;}.cls-3{fill:#f8a41c;}</style></defs><g id="Layer_2" data-name="Layer 2"><g id="Layer_1-2" data-name="Layer 1"><path class="cls-1" d="M323.38,85.12V146A37.33,37.33,0,0,1,286,183.37H41.85v-.08a14.63,14.63,0,0,1-12.93-14.68V100.2a.44.44,0,0,0-.44-.44H24.13a12.71,12.71,0,0,1-9.94-4.71A11.43,11.43,0,0,1,12,85.25l1.4-5.76a.45.45,0,0,0-.07-.36,17.07,17.07,0,0,1,1.86-22.48V56L5.83,50.74A11.58,11.58,0,0,1,6.89,30.1L72.78,1.32A15.44,15.44,0,0,1,79.06,0a15.75,15.75,0,0,1,6.55,1.44L150,29.56l0,0a12.67,12.67,0,0,1,6,5.82,12.9,12.9,0,0,1,1.05,8.3,7.41,7.41,0,0,0,7.32,8.84H290.79A32.59,32.59,0,0,1,323.38,85.12Z"/><path class="cls-2" d="M145.8,38.65,81.48,10.55a5.63,5.63,0,0,0-4.7-.07L10.94,39.24a1.58,1.58,0,0,0-.15,2.82l14.42,8v12a7.14,7.14,0,0,0-.57,13.57L21.75,87.6c-.27,1.12.87,2.16,2.38,2.16h6c1.51,0,2.66-1,2.38-2.16L29.6,75.65A7.14,7.14,0,0,0,29,62.08v-9.9l9.89,5.49V169.05a4.32,4.32,0,0,0,5.83,4l35-13,23.19,7V151.41l12.9-4.81a5.55,5.55,0,0,0,3.61-5.2V55l26.34-11.42A2.7,2.7,0,0,0,145.8,38.65Z"/><rect class="cls-2" x="25.21" y="45.64" width="3.82" height="26.36"/><path class="cls-2" d="M30.11,89.76h-6c-1.51,0-2.65-1-2.38-2.16l3.46-14.3H29l3.46,14.3C32.77,88.72,31.62,89.76,30.11,89.76Z"/><circle class="cls-2" cx="27.12" cy="68.96" r="7.14"/><path class="cls-2" d="M115.79,146.6l-71,26.5a4.32,4.32,0,0,1-5.83-4v-112L119.4,28.86V141.4A5.55,5.55,0,0,1,115.79,146.6Z"/><polygon class="cls-3" points="61.46 154.58 102.89 167.04 102.89 73.3 61.46 88.57 61.46 154.58"/><rect class="cls-2" x="90.52" y="117.15" width="6.05" height="6.05" rx="3.02"/><rect class="cls-2" x="91.9" y="120.17" width="3.28" height="8.08" rx="1.64"/><path class="cls-2" d="M169.39,70.93h-7.52V96.66h-6.35V70.93H148V65.15h21.39Z"/><path class="cls-2" d="M197.77,96.66h-6.34V84H179.79V96.66h-6.33V65.15h6.33V77.72h11.64V65.15h6.34Z"/><path class="cls-2" d="M220.66,96.66H203.81V65.15H220V71h-9.87v6.85h9.18v5.85h-9.18v7h10.52Z"/><path class="cls-2" d="M173.25,122.54q0,6-3,9.72t-8.79,3.7q-5.62,0-8.54-3.64A14.77,14.77,0,0,1,150,122.8V103.9h6.35v18.64a8.46,8.46,0,0,0,1.47,5.37,4.72,4.72,0,0,0,3.86,1.83,4.66,4.66,0,0,0,3.78-1.77,8,8,0,0,0,1.45-5.17V103.9h6.33Z"/><path class="cls-2" d="M204.24,135.41h-6.39L186.28,116c-.33-.58-.61-1.09-.83-1.52s-.39-.8-.51-1.09h-.07c0,.56,0,1.26,0,2.11s0,1.84,0,3v17h-6V103.9h6.82l11.14,18.83c.24.43.47.86.7,1.29s.44.86.63,1.28h.08c0-.36,0-.91-.06-1.63s0-1.63,0-2.7V103.9h6Z"/><path class="cls-2" d="M216.6,135.41h-6.33V103.9h6.33Z"/><path class="cls-2" d="M259.5,103.9l-7.27,31.51h-7.17l-4.66-19.82c-.12-.48-.2-.89-.26-1.22s-.13-.75-.21-1.26h-.08c-.07.51-.15.94-.22,1.28s-.16.75-.27,1.2l-4.78,19.82h-7.46l-7.23-31.51h6.82l4,20.63c.08.43.15.79.2,1.09s.12.78.21,1.44h.12q.17-1,.24-1.38c.05-.27.15-.68.29-1.23l5.1-20.55h6.77l4.61,20.81c.09.42.16.77.21,1s.13.7.24,1.27h.08c.09-.6.15-1,.19-1.29s.11-.64.22-1.15l3.95-20.68Z"/><path class="cls-2" d="M258.56,135.41l10.07-31.51h7.5L286,135.41h-6.66l-1.94-6.31H267.06l-1.9,6.31Zm9.95-12.11h7.35l-3-11c-.1-.39-.2-.75-.29-1.08s-.18-.72-.28-1.16h-.15c-.08.37-.17.73-.26,1.08s-.19.73-.31,1.14Z"/><path class="cls-2" d="M308.24,103.9l-9.15,20.61v10.9h-6.32V124.64l-8.92-20.74H291l4.61,11.67c.1.26.19.52.28.77s.2.59.34,1h.08c.13-.41.24-.72.32-.94l.31-.77,4.68-11.76Z"/><path class="cls-2" d="M156.67,174.16h-6.32V142.65h6.32Z"/><path class="cls-2" d="M187.94,174.16h-6.39L170,154.72c-.33-.59-.6-1.1-.83-1.53s-.39-.8-.51-1.09h-.07c0,.56,0,1.26.06,2.11s0,1.85,0,3v17h-6V142.65h6.82l11.14,18.83c.24.43.47.86.7,1.29s.44.86.64,1.28H182c0-.36,0-.91,0-1.63s0-1.63,0-2.69V142.65h6Z"/><path class="cls-2" d="M145.74,43.55l-71,30.77A7.15,7.15,0,0,1,68.34,74L10.79,42.06a1.59,1.59,0,0,1,.15-2.82L76.78,10.48a5.63,5.63,0,0,1,4.7.07l64.32,28.1A2.7,2.7,0,0,1,145.74,43.55Z"/></g></g></svg>